<?xml version="1.0" encoding="iso-8859-1"?>
<!-- Generator: Adobe Illustrator 24.3.0, SVG Export Plug-In . SVG Version: 6.00 Build 0)  -->
<svg version="1.1" id="Layer_1" xmlns="http://www.w3.org/2000/svg" xmlns:xlink="http://www.w3.org/1999/xlink" x="0px" y="0px"
	 viewBox="0 0 500 500" style="enable-background:new 0 0 500 500;" xml:space="preserve">
<g id="watermark_1_">
	<g>
		<g id="watermark" style="opacity:0.61;">
			<g>
				<g>
					<g>
						<g>
							<polygon style="fill:#FFFFFF;" points="213.765,461.172 208.204,474.017 205.268,474.017 199.726,461.172 202.938,461.172 
								206.846,470.347 210.81,461.172 							"/>
						</g>
						<g>
							<path style="fill:#FFFFFF;" d="M223.507,469.741h-7.469c0.275,1.23,1.321,1.982,2.826,1.982c1.046,0,1.798-0.312,2.477-0.954
								l1.523,1.651c-0.917,1.046-2.294,1.597-4.074,1.597c-3.413,0-5.634-2.147-5.634-5.083c0-2.954,2.257-5.083,5.267-5.083
								c2.899,0,5.138,1.945,5.138,5.12C223.562,469.191,223.526,469.503,223.507,469.741 M216.002,468.071h4.863
								c-0.202-1.248-1.138-2.055-2.422-2.055C217.139,466.016,216.204,466.805,216.002,468.071"/>
						</g>
						<g>
							<path style="fill:#FFFFFF;" d="M224.735,468.934c0-2.973,2.294-5.083,5.505-5.083c2.074,0,3.707,0.899,4.423,2.514
								l-2.22,1.193c-0.532-0.936-1.321-1.358-2.221-1.358c-1.45,0-2.587,1.009-2.587,2.734c0,1.725,1.138,2.734,2.587,2.734
								c0.899,0,1.688-0.404,2.221-1.358l2.22,1.211c-0.716,1.578-2.349,2.495-4.423,2.495
								C227.029,474.017,224.735,471.907,224.735,468.934"/>
						</g>
						<g>
							<path style="fill:#FFFFFF;" d="M242.828,473.393c-0.587,0.422-1.45,0.624-2.331,0.624c-2.33,0-3.688-1.193-3.688-3.542
								v-4.055h-1.523v-2.202h1.523v-2.404h2.863v2.404h2.459v2.202h-2.459v4.019c0,0.844,0.458,1.303,1.229,1.303
								c0.422,0,0.844-0.128,1.156-0.367L242.828,473.393z"/>
						</g>
					</g>
					<g>
						<path style="fill:#FFFFFF;" d="M262.474,463.997v2.643c-0.238-0.018-0.422-0.037-0.642-0.037
							c-1.578,0-2.624,0.862-2.624,2.753v4.661h-2.863v-9.873h2.734v1.303C259.776,464.493,260.951,463.997,262.474,463.997"/>
					</g>
					<g>
						<path style="fill:#FFFFFF;" d="M263.299,472.53l1.009-2.239c1.083,0.789,2.697,1.339,4.239,1.339
							c1.762,0,2.477-0.587,2.477-1.376c0-2.404-7.469-0.752-7.469-5.524c0-2.184,1.762-4,5.413-4c1.615,0,3.267,0.385,4.459,1.138
							l-0.918,2.257c-1.193-0.679-2.422-1.009-3.56-1.009c-1.761,0-2.44,0.66-2.44,1.468c0,2.367,7.468,0.734,7.468,5.45
							c0,2.147-1.78,3.982-5.45,3.982C266.492,474.017,264.437,473.411,263.299,472.53"/>
					</g>
					<g>
						<path style="fill:#FFFFFF;" d="M285.428,469.741h-7.469c0.275,1.23,1.321,1.982,2.826,1.982c1.046,0,1.798-0.312,2.477-0.954
							l1.523,1.651c-0.918,1.046-2.294,1.597-4.074,1.597c-3.413,0-5.634-2.147-5.634-5.083c0-2.954,2.257-5.083,5.267-5.083
							c2.9,0,5.138,1.945,5.138,5.12C285.484,469.191,285.447,469.503,285.428,469.741 M277.923,468.071h4.863
							c-0.202-1.248-1.138-2.055-2.422-2.055C279.061,466.016,278.125,466.805,277.923,468.071"/>
					</g>
					<g>
						<path style="fill:#FFFFFF;" d="M297.007,469.741h-7.469c0.275,1.23,1.321,1.982,2.826,1.982c1.046,0,1.798-0.312,2.477-0.954
							l1.523,1.651c-0.918,1.046-2.294,1.597-4.074,1.597c-3.413,0-5.634-2.147-5.634-5.083c0-2.954,2.257-5.083,5.267-5.083
							c2.899,0,5.138,1.945,5.138,5.12C297.062,469.191,297.025,469.503,297.007,469.741 M289.501,468.071h4.863
							c-0.202-1.248-1.138-2.055-2.422-2.055C290.639,466.016,289.703,466.805,289.501,468.071"/>
					</g>
					<g>
						<polygon style="fill:#FFFFFF;" points="303.208,470.145 301.831,471.503 301.831,474.017 298.969,474.017 298.969,460.401 
							301.831,460.401 301.831,468.108 306.016,464.144 309.429,464.144 305.318,468.328 309.796,474.017 306.327,474.017 						"/>
					</g>
					<g>
						<path style="fill:#FFFFFF;" d="M256.601,475.359L256.601,475.359l-2.86-2.86c-0.435,0.508-0.953,0.943-1.534,1.284
							c-0.092,0.069-0.186,0.136-0.283,0.199l3.027,3.027c0.456,0.456,1.195,0.456,1.65,0
							C257.057,476.554,257.057,475.815,256.601,475.359"/>
					</g>
					<g>
						<path style="fill:#FFFFFF;" d="M249.984,463.244c0.221-0.173,0.495-0.281,0.797-0.281c0.042,0,0.083,0.002,0.124,0.006
							c-0.214-0.156-0.478-0.249-0.764-0.249c-0.395,0-0.744,0.18-0.981,0.458c-0.051,0-0.1,0.006-0.151,0.008
							c0.039-0.077,0.064-0.162,0.064-0.255c0-0.234-0.143-0.434-0.346-0.519c0.087,0.126,0.138,0.279,0.138,0.445
							c0,0.122-0.031,0.237-0.081,0.341c-2.811,0.201-5.03,2.539-5.03,5.4c0,2.993,2.426,5.42,5.42,5.42
							c2.993,0,5.42-2.426,5.42-5.42C254.595,465.879,252.593,463.635,249.984,463.244 M247.983,464.656
							c0.435,0,0.844,0.112,1.199,0.309c0.374-0.245,0.82-0.387,1.299-0.387c0.711,0,1.348,0.312,1.784,0.806
							c-0.435-0.379-1.004-0.61-1.627-0.61c-0.449,0-0.87,0.12-1.234,0.329c-0.079,0.046-0.156,0.096-0.229,0.15
							c-0.065-0.048-0.133-0.093-0.204-0.134c-0.369-0.219-0.8-0.344-1.26-0.344c-0.3,0-0.588,0.054-0.854,0.152
							C247.196,464.754,247.578,464.656,247.983,464.656 M251.772,469.098c0.115,0.305,0.181,0.634,0.181,0.979
							c0,1.534-1.244,2.777-2.778,2.777c-1.534,0-2.777-1.243-2.777-2.777c0-0.345,0.066-0.674,0.181-0.979
							c-0.62-0.382-1.035-1.064-1.035-1.846c0-1.197,0.971-2.168,2.168-2.168c0.565,0,1.078,0.218,1.463,0.572
							c0.386-0.354,0.899-0.572,1.464-0.572c1.197,0,2.168,0.971,2.168,2.168C252.807,468.034,252.392,468.716,251.772,469.098"/>
					</g>
					<g>
						<path style="fill:#FFFFFF;" d="M251.666,467.061c0,0.497-0.404,0.901-0.901,0.901c-0.497,0-0.901-0.404-0.901-0.901
							s0.404-0.901,0.901-0.901c0.101,0,0.197,0.017,0.287,0.047c-0.03,0.062-0.045,0.132-0.045,0.204
							c0,0.273,0.221,0.494,0.494,0.494c0.05,0,0.099-0.008,0.146-0.022C251.66,466.941,251.666,467,251.666,467.061"/>
					</g>
					<g>
						<path style="fill:#FFFFFF;" d="M248.255,467.061c0,0.376-0.305,0.681-0.681,0.681c-0.376,0-0.681-0.305-0.681-0.681
							s0.305-0.681,0.681-0.681c0.076,0,0.149,0.013,0.217,0.035c-0.023,0.047-0.034,0.1-0.034,0.155
							c0,0.206,0.167,0.374,0.374,0.374c0.038,0,0.075-0.006,0.11-0.017C248.25,466.97,248.255,467.015,248.255,467.061"/>
					</g>
					<g>
						<g>
							<g>
								<rect x="242.908" y="467.83" style="fill:#FFFFFF;" width="0.616" height="0.616"/>
							</g>
							<g>
								<rect x="254.827" y="467.83" style="fill:#FFFFFF;" width="0.616" height="0.616"/>
							</g>
							<g>
								<path style="fill:#FFFFFF;" d="M255.205,468.082h-0.14c0-3.248-2.642-5.89-5.89-5.89c-3.248,0-5.89,2.642-5.89,5.89h-0.14
									c0-1.611,0.627-3.125,1.766-4.264c1.139-1.139,2.653-1.766,4.264-1.766c1.611,0,3.125,0.627,4.264,1.766
									C254.578,464.957,255.205,466.471,255.205,468.082"/>
							</g>
						</g>
						<g>
							<rect x="248.868" y="461.814" style="fill:#FFFFFF;" width="0.616" height="0.616"/>
						</g>
						<g>
							<rect x="244.95" y="462.052" style="fill:#FFFFFF;" width="8.45" height="0.14"/>
						</g>
						<g>
							<path style="fill:#FFFFFF;" d="M245.174,462.15c0,0.108-0.088,0.196-0.196,0.196c-0.108,0-0.196-0.088-0.196-0.196
								c0-0.108,0.088-0.196,0.196-0.196C245.086,461.954,245.174,462.042,245.174,462.15"/>
						</g>
						<g>
							<path style="fill:#FFFFFF;" d="M253.596,462.15c0,0.108-0.088,0.196-0.196,0.196c-0.108,0-0.196-0.088-0.196-0.196
								c0-0.108,0.088-0.196,0.196-0.196C253.509,461.954,253.596,462.042,253.596,462.15"/>
						</g>
					</g>
				</g>
				<g>
					<path style="fill:#FFFFFF;" d="M314.356,473.409c0,1.559-2.364,1.559-2.364,0C311.993,471.851,314.356,471.851,314.356,473.409
						z"/>
				</g>
				<g>
					<g>
						<g>
							<path style="fill:#FFFFFF;" d="M161.739,466.549l1.772,6.088l1.855-6.088h2.215l-2.823,8.14h-2.33l-0.837-2.396l-0.722-2.708
								l-0.722,2.708l-0.837,2.396h-2.33l-2.839-8.14h2.231l1.855,6.088l1.756-6.088H161.739z"/>
						</g>
						<g>
							<path style="fill:#FFFFFF;" d="M176.713,466.549l1.772,6.088l1.855-6.088h2.215l-2.823,8.14h-2.33l-0.837-2.396l-0.722-2.708
								l-0.722,2.708l-0.837,2.396h-2.33l-2.839-8.14h2.231l1.855,6.088l1.756-6.088H176.713z"/>
						</g>
						<g>
							<path style="fill:#FFFFFF;" d="M191.687,466.549l1.772,6.088l1.855-6.088h2.215l-2.823,8.14h-2.33l-0.837-2.396l-0.722-2.708
								l-0.722,2.708l-0.837,2.396h-2.33l-2.839-8.14h2.231l1.855,6.088l1.756-6.088H191.687z"/>
						</g>
					</g>
					<g>
						<path style="fill:#FFFFFF;" d="M200.908,473.52c0,1.559-2.364,1.559-2.364,0C198.545,471.962,200.908,471.962,200.908,473.52z
							"/>
					</g>
					<g>
						<path style="fill:#FFFFFF;" d="M322.71,473.409c-0.935,0.919-1.919,1.28-3.117,1.28c-2.346,0-4.3-1.411-4.3-4.282
							s1.953-4.284,4.3-4.284c1.149,0,2.035,0.329,2.921,1.199l-1.264,1.329c-0.476-0.428-1.066-0.64-1.623-0.64
							c-1.346,0-2.33,0.985-2.33,2.396c0,1.542,1.05,2.362,2.297,2.362c0.64,0,1.28-0.18,1.772-0.672L322.71,473.409z"/>
					</g>
					<g>
						<path style="fill:#FFFFFF;" d="M331.805,470.472c0,2.33-1.591,4.217-4.217,4.217c-2.626,0-4.201-1.887-4.201-4.217
							c0-2.314,1.609-4.217,4.185-4.217C330.149,466.255,331.805,468.158,331.805,470.472z M325.389,470.472
							c0,1.231,0.739,2.38,2.199,2.38c1.46,0,2.199-1.149,2.199-2.38c0-1.215-0.854-2.396-2.199-2.396
							C326.144,468.077,325.389,469.258,325.389,470.472z"/>
					</g>
					<g>
						<path style="fill:#FFFFFF;" d="M338.572,474.689v-4.332c0-1.068-0.559-2.035-1.658-2.035c-1.082,0-1.722,0.967-1.722,2.035
							v4.332h-2.003v-8.107h1.855l0.148,0.985c0.426-0.82,1.362-1.116,2.133-1.116c0.969,0,1.937,0.394,2.396,1.51
							c0.723-1.149,1.658-1.478,2.708-1.478c2.297,0,3.43,1.412,3.43,3.84v4.365h-2.003v-4.365c0-1.066-0.442-1.97-1.526-1.97
							c-1.082,0-1.756,0.935-1.756,2.003v4.332H338.572z"/>
					</g>
				</g>
			</g>
		</g>
		<g style="opacity:0.61;">
			<g>
				<g>
					<path style="fill:#FFFFFF;" d="M345.988,431.299c-0.006-1.224-0.959-2.121-2.189-2.14c-0.924-0.014-0.832,0.12-0.834-0.867
						c-0.003-1.097-0.007-2.194,0.003-3.292c0.003-0.379-0.112-0.691-0.362-0.976c-2.342-2.668-4.678-5.342-7.019-8.011
						c-0.12-0.137-0.275-0.244-0.414-0.366c-6.214,0-12.427,0-18.641,0c-0.794,0.293-1.14,0.868-1.138,1.709
						c0.01,3.748,0.004,7.496,0.004,11.243c0,0.556-0.003,0.589-0.55,0.551c-1.497-0.102-2.516,0.986-2.497,2.492
						c0.044,3.476,0.013,6.953,0.014,10.429c0.001,1.58,0.867,2.443,2.45,2.449c0.582,0.002,0.582,0.002,0.582,0.6
						c0,2.219-0.001,4.438,0.001,6.657c0.001,1.192,0.58,1.771,1.768,1.771c8.013,0.001,16.027,0.001,24.04,0
						c1.168,0,1.755-0.583,1.757-1.745c0.002-2.256,0-4.512,0.001-6.768c0-0.512,0.002-0.511,0.52-0.515
						c0.271-0.002,0.541,0.008,0.809-0.058c0.996-0.246,1.69-1.044,1.694-2.069C346.003,438.696,346.005,434.997,345.988,431.299z
						 M317.537,417.162c5.337,0,10.674,0,16.01,0c0.548,0,0.554,0.007,0.554,0.561c0.001,2.243-0.001,4.486,0.001,6.73
						c0.001,0.811,0.249,1.059,1.06,1.059c1.91,0.001,3.821,0,5.731,0.001c0.458,0,0.479,0.021,0.481,0.483
						c0.003,0.887,0.002,1.775,0,2.662c-0.001,0.477-0.024,0.498-0.504,0.499c-3.895,0.001-7.79,0-11.684,0
						c-3.882,0-7.765,0-11.647,0c-0.55,0-0.552-0.001-0.552-0.561c-0.001-3.624-0.001-7.247,0-10.871
						C316.987,417.166,316.991,417.162,317.537,417.162z M340.822,451.579c-3.883,0.001-7.766,0-11.65,0c-3.871,0-7.742,0-11.613,0
						c-0.572,0-0.574-0.002-0.574-0.579c-0.001-1.997-0.001-3.994,0.001-5.991c0-0.464,0.023-0.486,0.478-0.487
						c7.803-0.001,15.607-0.001,23.41,0c0.478,0,0.499,0.02,0.499,0.503c0.002,1.997,0.001,3.994,0,5.991
						C341.375,451.574,341.37,451.579,340.822,451.579z"/>
				</g>
				<g>
					<g>
						<rect x="327.418" y="417.053" style="fill:#FFFFFF;" width="1.757" height="1.054"/>
					</g>
					<g>
						<rect x="325.662" y="418.107" style="fill:#FFFFFF;" width="1.757" height="1.054"/>
					</g>
					<g>
						<rect x="327.418" y="419.161" style="fill:#FFFFFF;" width="1.757" height="1.054"/>
					</g>
					<g>
						<rect x="325.662" y="420.215" style="fill:#FFFFFF;" width="1.757" height="1.054"/>
					</g>
					<g>
						<rect x="327.418" y="421.269" style="fill:#FFFFFF;" width="1.757" height="1.054"/>
					</g>
					<g>
						<rect x="325.662" y="422.323" style="fill:#FFFFFF;" width="1.757" height="1.054"/>
					</g>
					<g>
						<rect x="327.418" y="423.378" style="fill:#FFFFFF;" width="1.757" height="1.054"/>
					</g>
					<g>
						<rect x="325.662" y="424.432" style="fill:#FFFFFF;" width="1.757" height="1.054"/>
					</g>
					<g>
						<rect x="327.418" y="425.486" style="fill:#FFFFFF;" width="1.757" height="1.054"/>
					</g>
					<g>
						<rect x="325.662" y="426.54" style="fill:#FFFFFF;" width="1.757" height="1.054"/>
					</g>
					<g>
						<rect x="327.418" y="427.594" style="fill:#FFFFFF;" width="1.757" height="1.054"/>
					</g>
					<g>
						<rect x="325.662" y="428.648" style="fill:#FFFFFF;" width="1.757" height="1.054"/>
					</g>
				</g>
			</g>
			<g>
				<path style="fill:#FFFFFF;" d="M187.637,431.299c-0.006-1.224-0.959-2.121-2.189-2.14c-0.924-0.014-0.832,0.12-0.834-0.867
					c-0.003-1.097-0.007-2.194,0.003-3.292c0.003-0.379-0.112-0.691-0.362-0.976c-2.342-2.668-4.678-5.342-7.019-8.011
					c-0.12-0.137-0.275-0.244-0.414-0.366c-6.214,0-12.427,0-18.641,0c-0.794,0.293-1.14,0.868-1.138,1.709
					c0.01,3.748,0.004,7.496,0.004,11.243c0,0.556-0.003,0.589-0.55,0.551c-1.497-0.102-2.516,0.986-2.497,2.492
					c0.044,3.476,0.013,6.953,0.014,10.429c0.001,1.58,0.867,2.443,2.45,2.449c0.582,0.002,0.582,0.002,0.582,0.6
					c0,2.219-0.001,4.438,0.001,6.657c0.001,1.192,0.58,1.771,1.768,1.771c8.013,0.001,16.027,0.001,24.04,0
					c1.168,0,1.755-0.583,1.757-1.745c0.002-2.256,0-4.512,0.001-6.768c0-0.512,0.002-0.511,0.52-0.515
					c0.271-0.002,0.541,0.008,0.809-0.058c0.996-0.246,1.69-1.044,1.694-2.069C187.652,438.696,187.655,434.997,187.637,431.299z
					 M159.187,417.162c5.337,0,10.674,0,16.01,0c0.548,0,0.554,0.007,0.554,0.561c0.001,2.243-0.001,4.486,0.001,6.73
					c0.001,0.811,0.249,1.059,1.06,1.059c1.91,0.001,3.821,0,5.731,0.001c0.458,0,0.479,0.021,0.481,0.483
					c0.003,0.887,0.002,1.775,0,2.662c-0.001,0.477-0.024,0.498-0.504,0.499c-3.895,0.001-7.79,0-11.684,0
					c-3.882,0-7.765,0-11.647,0c-0.55,0-0.552-0.001-0.552-0.561c-0.001-3.624-0.001-7.247,0-10.871
					C158.636,417.166,158.64,417.162,159.187,417.162z M182.472,451.579c-3.883,0.001-7.766,0-11.65,0c-3.871,0-7.742,0-11.613,0
					c-0.572,0-0.574-0.002-0.574-0.579c-0.001-1.997-0.001-3.994,0.001-5.991c0-0.464,0.023-0.486,0.478-0.487
					c7.803-0.001,15.607-0.001,23.41,0c0.478,0,0.499,0.02,0.499,0.503c0.002,1.997,0.001,3.994,0,5.991
					C183.024,451.574,183.019,451.579,182.472,451.579z"/>
			</g>
			<g>
				<path style="fill:#FFFFFF;" d="M159.779,440.669v-7.897h2.779c0.375,0,0.726,0.061,1.053,0.182
					c0.327,0.121,0.612,0.292,0.855,0.513c0.242,0.221,0.434,0.483,0.573,0.789c0.14,0.305,0.21,0.642,0.21,1.009
					c0,0.375-0.07,0.715-0.21,1.02c-0.14,0.305-0.331,0.568-0.573,0.789c-0.243,0.221-0.528,0.392-0.855,0.513
					c-0.327,0.121-0.678,0.182-1.053,0.182h-1.29v2.901H159.779z M162.58,436.356c0.39,0,0.684-0.111,0.882-0.331
					c0.199-0.22,0.298-0.474,0.298-0.761c0-0.14-0.024-0.276-0.072-0.408c-0.048-0.132-0.121-0.248-0.221-0.347
					c-0.099-0.099-0.223-0.178-0.37-0.237c-0.147-0.059-0.32-0.089-0.518-0.089h-1.312v2.173H162.58z"/>
				<path style="fill:#FFFFFF;" d="M166.308,432.771h1.731l3.177,5.294h0.088l-0.088-1.522v-3.772h1.478v7.897h-1.566l-3.353-5.592
					h-0.088l0.088,1.522v4.07h-1.467V432.771z"/>
				<path style="fill:#FFFFFF;" d="M177.922,436.334h3.872c0.022,0.089,0.04,0.195,0.055,0.32c0.014,0.125,0.022,0.25,0.022,0.375
					c0,0.507-0.077,0.985-0.231,1.434c-0.154,0.449-0.397,0.849-0.728,1.202c-0.353,0.375-0.776,0.666-1.268,0.871
					c-0.493,0.206-1.055,0.309-1.688,0.309c-0.574,0-1.114-0.103-1.622-0.309c-0.507-0.206-0.948-0.492-1.323-0.86
					c-0.375-0.367-0.673-0.803-0.894-1.307c-0.221-0.504-0.331-1.053-0.331-1.649c0-0.595,0.11-1.145,0.331-1.649
					c0.221-0.504,0.518-0.939,0.894-1.307c0.375-0.367,0.816-0.654,1.323-0.86c0.507-0.206,1.048-0.309,1.622-0.309
					c0.64,0,1.211,0.11,1.715,0.331c0.504,0.221,0.935,0.526,1.296,0.915l-1.025,1.004c-0.258-0.272-0.544-0.48-0.861-0.623
					c-0.316-0.143-0.695-0.215-1.136-0.215c-0.361,0-0.703,0.065-1.026,0.193c-0.324,0.129-0.607,0.311-0.85,0.546
					c-0.242,0.235-0.436,0.52-0.579,0.855c-0.143,0.335-0.215,0.708-0.215,1.119c0,0.412,0.072,0.785,0.215,1.12
					c0.143,0.335,0.338,0.62,0.584,0.855c0.246,0.235,0.531,0.418,0.855,0.546c0.323,0.129,0.669,0.193,1.037,0.193
					c0.419,0,0.773-0.061,1.064-0.182c0.29-0.121,0.538-0.278,0.744-0.469c0.148-0.132,0.275-0.3,0.381-0.502
					c0.106-0.202,0.189-0.428,0.248-0.678h-2.482V436.334z"/>
			</g>
			<g>
				<path style="fill:#FFFFFF;" d="M224.019,431.299c-0.006-1.224-0.959-2.121-2.189-2.14c-0.924-0.014-0.832,0.12-0.834-0.867
					c-0.003-1.097-0.007-2.194,0.003-3.292c0.003-0.379-0.112-0.691-0.362-0.976c-2.342-2.668-4.678-5.342-7.019-8.011
					c-0.12-0.137-0.275-0.244-0.414-0.366c-6.214,0-12.427,0-18.641,0c-0.794,0.293-1.14,0.868-1.138,1.709
					c0.01,3.748,0.004,7.496,0.004,11.243c0,0.556-0.003,0.589-0.55,0.551c-1.497-0.102-2.516,0.986-2.497,2.492
					c0.044,3.476,0.013,6.953,0.014,10.429c0.001,1.58,0.867,2.443,2.45,2.449c0.582,0.002,0.582,0.002,0.582,0.6
					c0,2.219-0.001,4.438,0.001,6.657c0.001,1.192,0.58,1.771,1.768,1.771c8.013,0.001,16.027,0.001,24.04,0
					c1.168,0,1.755-0.583,1.757-1.745c0.002-2.256,0-4.512,0.001-6.768c0-0.512,0.002-0.511,0.52-0.515
					c0.271-0.002,0.541,0.008,0.809-0.058c0.997-0.246,1.69-1.044,1.694-2.069C224.034,438.696,224.036,434.997,224.019,431.299z
					 M195.568,417.162c5.337,0,10.674,0,16.01,0c0.548,0,0.554,0.007,0.554,0.561c0.001,2.243-0.001,4.486,0.001,6.73
					c0.001,0.811,0.249,1.059,1.06,1.059c1.91,0.001,3.821,0,5.731,0.001c0.458,0,0.479,0.021,0.481,0.483
					c0.003,0.887,0.002,1.775,0,2.662c-0.001,0.477-0.024,0.498-0.504,0.499c-3.895,0.001-7.79,0-11.684,0
					c-3.882,0-7.765,0-11.647,0c-0.55,0-0.552-0.001-0.552-0.561c-0.001-3.624-0.001-7.247,0-10.871
					C195.018,417.166,195.022,417.162,195.568,417.162z M218.854,451.579c-3.883,0.001-7.766,0-11.65,0c-3.871,0-7.742,0-11.613,0
					c-0.572,0-0.574-0.002-0.574-0.579c-0.001-1.997-0.001-3.994,0.001-5.991c0-0.464,0.023-0.486,0.478-0.487
					c7.803-0.001,15.607-0.001,23.41,0c0.478,0,0.499,0.02,0.499,0.503c0.002,1.997,0.001,3.994,0,5.991
					C219.406,451.574,219.401,451.579,218.854,451.579z"/>
			</g>
			<g>
				<path style="fill:#FFFFFF;" d="M205.111,432.771h1.699l2.967,7.897h-1.644l-0.651-1.886h-3.044l-0.651,1.886h-1.643
					L205.111,432.771z M206.997,437.415l-0.706-1.974l-0.287-0.96h-0.088l-0.287,0.96l-0.706,1.974H206.997z"/>
				<path style="fill:#FFFFFF;" d="M211.331,434.536c-0.125,0-0.245-0.024-0.359-0.072c-0.114-0.048-0.213-0.114-0.298-0.199
					c-0.084-0.084-0.151-0.182-0.198-0.292c-0.048-0.11-0.072-0.232-0.072-0.364s0.024-0.254,0.072-0.364
					c0.048-0.11,0.114-0.208,0.198-0.292c0.084-0.084,0.184-0.151,0.298-0.198c0.114-0.048,0.233-0.072,0.359-0.072
					c0.257,0,0.478,0.09,0.662,0.27c0.184,0.181,0.276,0.399,0.276,0.656s-0.092,0.476-0.276,0.656
					C211.809,434.446,211.589,434.536,211.331,434.536z M210.615,440.669v-5.404h1.445v5.404H210.615z"/>
			</g>
			<g>
				<path style="fill:#FFFFFF;" d="M261.044,431.299c-0.006-1.224-0.959-2.121-2.189-2.14c-0.924-0.014-0.832,0.12-0.834-0.867
					c-0.003-1.097-0.007-2.194,0.003-3.292c0.003-0.379-0.112-0.691-0.362-0.976c-2.342-2.668-4.678-5.342-7.019-8.011
					c-0.12-0.137-0.275-0.244-0.414-0.366c-6.214,0-12.427,0-18.641,0c-0.794,0.293-1.14,0.868-1.138,1.709
					c0.01,3.748,0.004,7.496,0.004,11.243c0,0.556-0.003,0.589-0.55,0.551c-1.497-0.102-2.516,0.986-2.497,2.492
					c0.044,3.476,0.013,6.953,0.014,10.429c0.001,1.58,0.867,2.443,2.45,2.449c0.582,0.002,0.582,0.002,0.582,0.6
					c0,2.219-0.001,4.438,0.001,6.657c0.001,1.192,0.58,1.771,1.768,1.771c8.013,0.001,16.027,0.001,24.04,0
					c1.168,0,1.755-0.583,1.757-1.745c0.002-2.256,0-4.512,0.001-6.768c0-0.512,0.002-0.511,0.52-0.515
					c0.271-0.002,0.541,0.008,0.809-0.058c0.996-0.246,1.69-1.044,1.694-2.069C261.059,438.696,261.061,434.997,261.044,431.299z
					 M232.593,417.162c5.337,0,10.674,0,16.01,0c0.548,0,0.554,0.007,0.554,0.561c0.001,2.243-0.001,4.486,0.001,6.73
					c0.001,0.811,0.249,1.059,1.06,1.059c1.91,0.001,3.821,0,5.731,0.001c0.458,0,0.479,0.021,0.481,0.483
					c0.003,0.887,0.002,1.775,0,2.662c-0.001,0.477-0.024,0.498-0.504,0.499c-3.895,0.001-7.79,0-11.684,0
					c-3.882,0-7.765,0-11.647,0c-0.55,0-0.552-0.001-0.552-0.561c-0.001-3.624-0.001-7.247,0-10.871
					C232.042,417.166,232.047,417.162,232.593,417.162z M255.878,451.579c-3.883,0.001-7.766,0-11.65,0c-3.871,0-7.742,0-11.613,0
					c-0.572,0-0.574-0.002-0.574-0.579c-0.001-1.997-0.001-3.994,0.001-5.991c0-0.464,0.023-0.486,0.478-0.487
					c7.803-0.001,15.607-0.001,23.41,0c0.478,0,0.499,0.02,0.499,0.503c0.002,1.997,0.001,3.994,0,5.991
					C256.431,451.574,256.426,451.579,255.878,451.579z"/>
			</g>
			<g>
				<path style="fill:#FFFFFF;" d="M236.361,440.845c-0.338,0-0.662-0.048-0.971-0.143c-0.309-0.095-0.592-0.239-0.849-0.43
					c-0.257-0.191-0.481-0.425-0.673-0.7c-0.191-0.276-0.342-0.597-0.452-0.965l1.401-0.551c0.103,0.397,0.283,0.726,0.54,0.987
					c0.257,0.261,0.596,0.392,1.015,0.392c0.154,0,0.303-0.02,0.447-0.061c0.143-0.04,0.272-0.099,0.386-0.176
					s0.204-0.175,0.27-0.292c0.066-0.118,0.099-0.254,0.099-0.408c0-0.147-0.026-0.279-0.077-0.397
					c-0.051-0.117-0.138-0.227-0.259-0.331c-0.121-0.103-0.28-0.202-0.475-0.298c-0.195-0.095-0.435-0.195-0.722-0.298l-0.485-0.176
					c-0.213-0.073-0.429-0.173-0.645-0.298c-0.217-0.125-0.413-0.276-0.59-0.452c-0.177-0.176-0.322-0.384-0.436-0.623
					c-0.114-0.239-0.171-0.509-0.171-0.81c0-0.309,0.06-0.597,0.182-0.866c0.121-0.268,0.294-0.503,0.518-0.706
					c0.224-0.202,0.492-0.36,0.805-0.474s0.66-0.171,1.042-0.171c0.397,0,0.74,0.053,1.031,0.16
					c0.291,0.107,0.537,0.243,0.739,0.408c0.202,0.165,0.366,0.348,0.491,0.546c0.125,0.199,0.217,0.386,0.276,0.563l-1.312,0.551
					c-0.074-0.221-0.208-0.419-0.402-0.596c-0.195-0.176-0.462-0.265-0.8-0.265c-0.324,0-0.592,0.075-0.805,0.226
					c-0.213,0.151-0.32,0.348-0.32,0.59c0,0.235,0.103,0.436,0.309,0.601c0.206,0.165,0.533,0.325,0.982,0.48l0.497,0.165
					c0.316,0.111,0.605,0.237,0.866,0.381c0.261,0.143,0.485,0.314,0.673,0.513c0.187,0.199,0.331,0.425,0.43,0.678
					c0.1,0.254,0.149,0.546,0.149,0.877c0,0.412-0.083,0.767-0.248,1.064c-0.165,0.298-0.377,0.542-0.634,0.734
					c-0.258,0.191-0.548,0.335-0.872,0.43C236.986,440.797,236.67,440.845,236.361,440.845z"/>
				<path style="fill:#FFFFFF;" d="M239.516,432.771h1.61l1.633,4.754l0.287,1.015h0.088l0.309-1.015l1.699-4.754h1.61l-2.879,7.897
					h-1.566L239.516,432.771z"/>
				<path style="fill:#FFFFFF;" d="M251.097,436.334h3.871c0.022,0.089,0.04,0.195,0.055,0.32c0.015,0.125,0.023,0.25,0.023,0.375
					c0,0.507-0.078,0.985-0.232,1.434c-0.154,0.449-0.397,0.849-0.728,1.202c-0.353,0.375-0.775,0.666-1.268,0.871
					c-0.493,0.206-1.055,0.309-1.688,0.309c-0.574,0-1.114-0.103-1.621-0.309c-0.507-0.206-0.949-0.492-1.324-0.86
					c-0.375-0.367-0.673-0.803-0.894-1.307c-0.22-0.504-0.331-1.053-0.331-1.649c0-0.595,0.11-1.145,0.331-1.649
					c0.221-0.504,0.518-0.939,0.894-1.307c0.375-0.367,0.816-0.654,1.324-0.86c0.507-0.206,1.047-0.309,1.621-0.309
					c0.64,0,1.211,0.11,1.715,0.331c0.504,0.221,0.936,0.526,1.296,0.915l-1.026,1.004c-0.257-0.272-0.544-0.48-0.861-0.623
					c-0.316-0.143-0.694-0.215-1.136-0.215c-0.36,0-0.702,0.065-1.026,0.193c-0.323,0.129-0.607,0.311-0.849,0.546
					c-0.243,0.235-0.436,0.52-0.579,0.855c-0.143,0.335-0.215,0.708-0.215,1.119c0,0.412,0.072,0.785,0.215,1.12
					c0.143,0.335,0.338,0.62,0.585,0.855c0.246,0.235,0.531,0.418,0.854,0.546c0.324,0.129,0.669,0.193,1.037,0.193
					c0.419,0,0.774-0.061,1.064-0.182c0.29-0.121,0.539-0.278,0.745-0.469c0.147-0.132,0.274-0.3,0.38-0.502
					c0.107-0.202,0.189-0.428,0.248-0.678h-2.482V436.334z"/>
			</g>
			<g>
				<path style="fill:#FFFFFF;" d="M297.3,431.299c-0.006-1.224-0.959-2.121-2.189-2.14c-0.924-0.014-0.832,0.12-0.834-0.867
					c-0.003-1.097-0.007-2.194,0.003-3.292c0.003-0.379-0.112-0.691-0.362-0.976c-2.342-2.668-4.678-5.342-7.019-8.011
					c-0.12-0.137-0.275-0.244-0.414-0.366c-6.214,0-12.427,0-18.641,0c-0.794,0.293-1.14,0.868-1.138,1.709
					c0.01,3.748,0.004,7.496,0.004,11.243c0,0.556-0.003,0.589-0.55,0.551c-1.497-0.102-2.516,0.986-2.497,2.492
					c0.044,3.476,0.013,6.953,0.014,10.429c0.001,1.58,0.867,2.443,2.45,2.449c0.582,0.002,0.582,0.002,0.582,0.6
					c0,2.219-0.001,4.438,0.001,6.657c0.001,1.192,0.58,1.771,1.768,1.771c8.013,0.001,16.027,0.001,24.04,0
					c1.168,0,1.755-0.583,1.757-1.745c0.002-2.256,0-4.512,0.001-6.768c0-0.512,0.002-0.511,0.52-0.515
					c0.271-0.002,0.541,0.008,0.809-0.058c0.996-0.246,1.69-1.044,1.694-2.069C297.315,438.696,297.318,434.997,297.3,431.299z
					 M268.85,417.162c5.337,0,10.674,0,16.01,0c0.548,0,0.554,0.007,0.554,0.561c0.001,2.243-0.001,4.486,0.001,6.73
					c0.001,0.811,0.249,1.059,1.06,1.059c1.91,0.001,3.821,0,5.731,0.001c0.458,0,0.479,0.021,0.481,0.483
					c0.003,0.887,0.002,1.775,0,2.662c-0.001,0.477-0.024,0.498-0.504,0.499c-3.895,0.001-7.79,0-11.684,0
					c-3.882,0-7.765,0-11.647,0c-0.55,0-0.552-0.001-0.552-0.561c-0.001-3.624-0.001-7.247,0-10.871
					C268.299,417.166,268.303,417.162,268.85,417.162z M292.135,451.579c-3.883,0.001-7.766,0-11.65,0c-3.871,0-7.742,0-11.613,0
					c-0.572,0-0.574-0.002-0.574-0.579c-0.001-1.997-0.001-3.994,0.001-5.991c0-0.464,0.023-0.486,0.478-0.487
					c7.803-0.001,15.607-0.001,23.41,0c0.478,0,0.499,0.02,0.499,0.503c0.001,1.997,0.001,3.994,0,5.991
					C292.687,451.574,292.682,451.579,292.135,451.579z"/>
			</g>
			<g>
				<path style="fill:#FFFFFF;" d="M272.966,434.183v1.831h3.165v1.412h-3.165v1.831h3.518v1.412h-5.007v-7.897h5.007v1.412H272.966
					z"/>
				<path style="fill:#FFFFFF;" d="M277.852,440.669v-7.897h2.779c0.375,0,0.726,0.061,1.053,0.182
					c0.327,0.121,0.612,0.292,0.855,0.513c0.243,0.221,0.434,0.483,0.574,0.789c0.14,0.305,0.209,0.642,0.209,1.009
					c0,0.375-0.07,0.715-0.209,1.02c-0.14,0.305-0.331,0.568-0.574,0.789c-0.243,0.221-0.528,0.392-0.855,0.513
					c-0.327,0.121-0.678,0.182-1.053,0.182h-1.29v2.901H277.852z M280.653,436.356c0.389,0,0.684-0.111,0.882-0.331
					c0.199-0.22,0.298-0.474,0.298-0.761c0-0.14-0.024-0.276-0.072-0.408c-0.048-0.132-0.121-0.248-0.221-0.347
					c-0.099-0.099-0.222-0.178-0.37-0.237c-0.147-0.059-0.32-0.089-0.518-0.089h-1.312v2.173H280.653z"/>
				<path style="fill:#FFFFFF;" d="M286.797,440.845c-0.338,0-0.662-0.048-0.971-0.143c-0.309-0.095-0.592-0.239-0.849-0.43
					c-0.257-0.191-0.482-0.425-0.673-0.7c-0.191-0.276-0.342-0.597-0.452-0.965l1.401-0.551c0.103,0.397,0.283,0.726,0.541,0.987
					c0.257,0.261,0.595,0.392,1.015,0.392c0.154,0,0.303-0.02,0.447-0.061c0.143-0.04,0.272-0.099,0.386-0.176
					c0.114-0.077,0.204-0.175,0.27-0.292c0.066-0.118,0.1-0.254,0.1-0.408c0-0.147-0.026-0.279-0.077-0.397
					c-0.051-0.117-0.138-0.227-0.259-0.331c-0.121-0.103-0.279-0.202-0.474-0.298c-0.195-0.095-0.436-0.195-0.723-0.298
					l-0.485-0.176c-0.213-0.073-0.428-0.173-0.645-0.298c-0.217-0.125-0.414-0.276-0.59-0.452c-0.176-0.176-0.322-0.384-0.436-0.623
					c-0.114-0.239-0.171-0.509-0.171-0.81c0-0.309,0.061-0.597,0.182-0.866c0.121-0.268,0.294-0.503,0.518-0.706
					c0.224-0.202,0.493-0.36,0.805-0.474c0.312-0.114,0.66-0.171,1.042-0.171c0.397,0,0.741,0.053,1.031,0.16
					c0.29,0.107,0.537,0.243,0.739,0.408c0.202,0.165,0.365,0.348,0.491,0.546c0.125,0.199,0.217,0.386,0.276,0.563l-1.312,0.551
					c-0.074-0.221-0.208-0.419-0.403-0.596c-0.195-0.176-0.462-0.265-0.799-0.265c-0.324,0-0.592,0.075-0.805,0.226
					c-0.213,0.151-0.32,0.348-0.32,0.59c0,0.235,0.103,0.436,0.309,0.601c0.206,0.165,0.533,0.325,0.982,0.48l0.496,0.165
					c0.316,0.111,0.605,0.237,0.866,0.381c0.261,0.143,0.485,0.314,0.673,0.513c0.187,0.199,0.331,0.425,0.43,0.678
					c0.099,0.254,0.149,0.546,0.149,0.877c0,0.412-0.083,0.767-0.248,1.064c-0.165,0.298-0.377,0.542-0.634,0.734
					c-0.258,0.191-0.548,0.335-0.872,0.43C287.422,440.797,287.105,440.845,286.797,440.845z"/>
			</g>
			<g>
				<path style="fill:#FFFFFF;" d="M321.394,439.168l4.004-4.985h-3.827v-1.412h5.559v1.5l-3.96,4.985h4.004v1.412h-5.779V439.168z"
					/>
				<path style="fill:#FFFFFF;" d="M328.409,432.771h1.489v7.897h-1.489V432.771z"/>
				<path style="fill:#FFFFFF;" d="M331.486,440.669v-7.897h2.779c0.375,0,0.726,0.061,1.053,0.182
					c0.327,0.121,0.612,0.292,0.855,0.513s0.434,0.483,0.574,0.789c0.14,0.305,0.209,0.642,0.209,1.009
					c0,0.375-0.07,0.715-0.209,1.02c-0.14,0.305-0.331,0.568-0.574,0.789c-0.243,0.221-0.528,0.392-0.855,0.513
					c-0.327,0.121-0.678,0.182-1.053,0.182h-1.29v2.901H331.486z M334.288,436.356c0.389,0,0.684-0.111,0.882-0.331
					c0.199-0.22,0.298-0.474,0.298-0.761c0-0.14-0.024-0.276-0.072-0.408c-0.048-0.132-0.121-0.248-0.221-0.347
					c-0.099-0.099-0.222-0.178-0.37-0.237c-0.147-0.059-0.32-0.089-0.518-0.089h-1.312v2.173H334.288z"/>
			</g>
		</g>
		<g style="opacity:0.61;">
			<path style="fill:#FFFFFF;" d="M300.133,433.27h9.067v2.242h-9.067V433.27z M300.133,437.136h9.067v2.243h-9.067V437.136z"/>
		</g>
	</g>
	<g style="opacity:0.61;">
		<path style="fill:#FFFFFF;" d="M156.756,478.878h1.607c1.263,0,2.114,0.812,2.114,1.974c0,1.161-0.851,1.973-2.114,1.973h-1.607
			V478.878z M158.34,482.464c1.049,0,1.725-0.665,1.725-1.612c0-0.947-0.677-1.613-1.725-1.613h-1.167v3.225H158.34z"/>
		<path style="fill:#FFFFFF;" d="M165.139,480.851c0-1.15,0.879-2.007,2.075-2.007c1.184,0,2.069,0.851,2.069,2.007
			c0,1.156-0.885,2.007-2.069,2.007C166.019,482.858,165.139,482.002,165.139,480.851z M168.866,480.851
			c0-0.942-0.705-1.635-1.652-1.635c-0.953,0-1.663,0.693-1.663,1.635c0,0.941,0.71,1.635,1.663,1.635
			C168.162,482.486,168.866,481.793,168.866,480.851z"/>
		<path style="fill:#FFFFFF;" d="M179.596,478.878l-1.331,3.947h-0.44l-1.156-3.366l-1.161,3.366h-0.434l-1.331-3.947h0.429
			l1.139,3.394l1.178-3.394h0.389l1.161,3.411l1.156-3.411H179.596z"/>
		<path style="fill:#FFFFFF;" d="M187.731,478.878v3.947h-0.344l-2.537-3.202v3.202h-0.417v-3.947h0.344l2.543,3.203v-3.203H187.731
			z"/>
		<path style="fill:#FFFFFF;" d="M193.093,478.878h0.417v3.586h2.21v0.361h-2.627V478.878z"/>
		<path style="fill:#FFFFFF;" d="M200.061,480.851c0-1.15,0.879-2.007,2.075-2.007c1.184,0,2.069,0.851,2.069,2.007
			c0,1.156-0.885,2.007-2.069,2.007C200.941,482.858,200.061,482.002,200.061,480.851z M203.788,480.851
			c0-0.942-0.705-1.635-1.652-1.635c-0.953,0-1.663,0.693-1.663,1.635c0,0.941,0.71,1.635,1.663,1.635
			C203.083,482.486,203.788,481.793,203.788,480.851z"/>
		<path style="fill:#FFFFFF;" d="M211.636,481.77h-2.199l-0.474,1.054h-0.434l1.804-3.947h0.412l1.804,3.947h-0.44L211.636,481.77z
			 M211.484,481.432l-0.947-2.12l-0.947,2.12H211.484z"/>
		<path style="fill:#FFFFFF;" d="M217.28,478.878h1.607c1.263,0,2.114,0.812,2.114,1.974c0,1.161-0.851,1.973-2.114,1.973h-1.607
			V478.878z M218.864,482.464c1.049,0,1.725-0.665,1.725-1.612c0-0.947-0.677-1.613-1.725-1.613h-1.167v3.225H218.864z"/>
		<path style="fill:#FFFFFF;" d="M234.041,481.77h-2.199l-0.474,1.054h-0.434l1.804-3.947h0.412l1.804,3.947h-0.44L234.041,481.77z
			 M233.889,481.432l-0.947-2.12l-0.947,2.12H233.889z"/>
		<path style="fill:#FFFFFF;" d="M239.685,478.878h0.417v3.586h2.21v0.361h-2.627V478.878z"/>
		<path style="fill:#FFFFFF;" d="M247.082,478.878h0.417v3.586h2.21v0.361h-2.627V478.878z"/>
		<path style="fill:#FFFFFF;" d="M260.449,479.239v1.551h2.041v0.361h-2.041v1.675h-0.417v-3.947h2.706v0.361H260.449z"/>
		<path style="fill:#FFFFFF;" d="M267.678,478.878h0.417v3.947h-0.417V478.878z"/>
		<path style="fill:#FFFFFF;" d="M273.456,478.878h0.417v3.586h2.21v0.361h-2.627V478.878z"/>
		<path style="fill:#FFFFFF;" d="M283.644,482.464v0.361h-2.791v-3.947h2.706v0.361h-2.289v1.404h2.041v0.355h-2.041v1.466H283.644z
			"/>
		<path style="fill:#FFFFFF;" d="M294.672,479.239v1.551h2.041v0.361h-2.041v1.675h-0.417v-3.947h2.706v0.361H294.672z"/>
		<path style="fill:#FFFFFF;" d="M301.5,480.851c0-1.15,0.879-2.007,2.075-2.007c1.184,0,2.069,0.851,2.069,2.007
			c0,1.156-0.885,2.007-2.069,2.007C302.379,482.858,301.5,482.002,301.5,480.851z M305.226,480.851
			c0-0.942-0.705-1.635-1.652-1.635c-0.953,0-1.663,0.693-1.663,1.635c0,0.941,0.71,1.635,1.663,1.635
			C304.522,482.486,305.226,481.793,305.226,480.851z"/>
		<path style="fill:#FFFFFF;" d="M313.351,482.825l-0.902-1.269c-0.102,0.011-0.203,0.017-0.316,0.017h-1.06v1.252h-0.417v-3.947
			h1.477c1.004,0,1.613,0.507,1.613,1.353c0,0.62-0.327,1.054-0.902,1.24l0.964,1.353H313.351z M313.328,480.231
			c0-0.632-0.417-0.992-1.207-0.992h-1.048v1.979h1.048C312.911,481.218,313.328,480.851,313.328,480.231z"/>
		<path style="fill:#FFFFFF;" d="M322.907,478.878v3.947h-0.4v-3.158l-1.551,2.656h-0.197l-1.551-2.639v3.14h-0.4v-3.947h0.344
			l1.714,2.926l1.697-2.926H322.907z"/>
		<path style="fill:#FFFFFF;" d="M330.744,481.77h-2.199l-0.473,1.054h-0.434l1.804-3.947h0.411l1.804,3.947h-0.44L330.744,481.77z
			 M330.592,481.432l-0.947-2.12l-0.947,2.12H330.592z"/>
		<path style="fill:#FFFFFF;" d="M336.957,479.239h-1.387v-0.361h3.192v0.361h-1.387v3.586h-0.417V479.239z"/>
		<path style="fill:#FFFFFF;" d="M343.063,482.346l0.164-0.321c0.282,0.276,0.784,0.479,1.302,0.479c0.739,0,1.06-0.31,1.06-0.699
			c0-1.083-2.43-0.417-2.43-1.877c0-0.581,0.451-1.083,1.455-1.083c0.446,0,0.908,0.13,1.224,0.35l-0.141,0.333
			c-0.338-0.22-0.733-0.327-1.083-0.327c-0.722,0-1.043,0.321-1.043,0.716c0,1.083,2.43,0.429,2.43,1.866
			c0,0.581-0.462,1.077-1.472,1.077C343.937,482.858,343.356,482.65,343.063,482.346z"/>
	</g>
</g>
<g>
</g>
<g>
	<path style="fill-rule:evenodd;clip-rule:evenodd;fill:#272325;" d="M272.618,267.224c-2.048-0.19-3.128-1.292-3.091-3.159
		c0.037-1.908,1.252-2.947,3.147-2.921c1.959,0.028,3.018,1.321,2.961,3.11C275.58,266.041,274.439,267.182,272.618,267.224z"/>
	<path style="fill-rule:evenodd;clip-rule:evenodd;fill:#2A2627;" d="M275.699,294.702c-0.196,1.732-1.075,3.104-2.96,3.169
		c-1.82,0.064-3.102-1.004-3.19-2.928c-0.087-1.9,0.978-3.109,2.873-3.208C274.32,291.638,275.362,292.805,275.699,294.702z"/>
	<path style="fill-rule:evenodd;clip-rule:evenodd;fill:#2A2728;" d="M272.552,180.7c2.176,0.098,3.156,1.331,3.071,3.144
		c-0.086,1.831-1.303,3.013-3.199,2.93c-1.899-0.082-2.993-1.328-2.901-3.201C269.614,181.705,270.753,180.664,272.552,180.7z"/>
	<path style="fill-rule:evenodd;clip-rule:evenodd;fill:#282425;" d="M272.723,276.047c1.84,0.185,2.949,1.291,2.885,3.147
		c-0.063,1.829-1.153,3.026-3.122,2.971c-1.958-0.055-2.999-1.297-2.959-3.124C269.567,277.199,270.692,276.103,272.723,276.047z"/>
	<path style="fill-rule:evenodd;clip-rule:evenodd;fill:#2A2627;" d="M272.308,174.237c-1.744-0.06-2.793-1.188-2.781-3.046
		c0.013-1.866,1.149-3.072,3.055-3.029c1.87,0.04,3.055,1.235,3.036,3.1C275.6,173.11,274.52,174.23,272.308,174.237z"/>
	<path style="fill-rule:evenodd;clip-rule:evenodd;fill:#272425;" d="M272.187,252.56c-1.668-0.117-2.709-1.234-2.654-3.102
		c0.055-1.895,1.28-2.974,3.146-2.938c1.915,0.038,2.995,1.323,2.933,3.139C275.55,251.475,274.441,252.602,272.187,252.56z"/>
	<path style="fill-rule:evenodd;clip-rule:evenodd;fill:#292526;" d="M275.684,312.217c-0.191,2.065-1.024,3.369-2.988,3.415
		c-1.894,0.046-3.1-1.021-3.161-2.918c-0.059-1.846,0.906-3.055,2.89-3.145C274.426,309.478,275.272,310.725,275.684,312.217z"/>
	<path style="fill-rule:evenodd;clip-rule:evenodd;fill:#262223;" d="M275.638,196.192c-0.237,1.898-1.226,3.052-3.15,3.006
		c-1.931-0.046-2.973-1.264-2.932-3.125c0.04-1.881,1.215-3.004,3.098-2.977C274.582,193.123,275.464,194.399,275.638,196.192z"/>
	<path style="fill-rule:evenodd;clip-rule:evenodd;fill:#262223;" d="M272.604,212.044c-1.859-0.059-2.98-1.111-3.052-2.966
		c-0.074-1.877,1.034-3.094,2.915-3.167c1.889-0.074,3.077,1.06,3.123,2.945C275.634,210.705,274.611,211.857,272.604,212.044z"/>
	<path style="fill-rule:evenodd;clip-rule:evenodd;fill:#252122;" d="M272.606,224.847c-1.918-0.089-3.041-1.14-3.06-3.007
		c-0.019-1.856,1.081-3.073,2.978-3.113c1.915-0.04,3.022,1.162,3.059,3.018C275.621,223.615,274.544,224.706,272.606,224.847z"/>
	<path style="fill-rule:evenodd;clip-rule:evenodd;fill:#262324;" d="M275.652,235.523c-0.153,1.891-1.043,3.137-2.973,3.193
		c-1.896,0.052-3.077-1.027-3.123-2.916c-0.046-1.853,0.972-3.067,2.912-3.145C274.42,232.576,275.352,233.768,275.652,235.523z"/>
	<g>
		<path style="fill-rule:evenodd;clip-rule:evenodd;" d="M132.439,332.554c-34.576,0-69.153,0.008-103.729-0.033
			c-1.197-0.002-3.1,0.796-3.479-0.759c-0.466-1.908-0.097-4.026-0.004-6.05c0.008-0.177,0.643-0.425,1.004-0.466
			c0.704-0.078,1.422-0.036,2.134-0.036c69.356,0,138.711-0.004,208.067,0.03c1.12,0.001,2.977-0.688,3.256,0.577
			c0.445,2.023,0.229,4.254-0.071,6.345c-0.103,0.724-1.45,0.374-2.228,0.376c-6.61,0.024-13.22,0.014-19.831,0.015
			C189.185,332.554,160.812,332.554,132.439,332.554z"/>
		<path style="fill-rule:evenodd;clip-rule:evenodd;" d="M220.615,202.336c-11.494-3.468-22.636-6.827-33.777-10.193
			c-17.653-5.335-35.308-10.664-52.952-16.029c-1.547-0.471-2.928-0.263-4.437,0.2c-27.899,8.557-55.812,17.069-83.724,25.589
			c-0.284,0.087-0.578,0.14-1.333,0.321c0-2.401-0.016-4.665,0.005-6.929c0.017-1.81,1.635-1.592,2.67-1.912
			c22.757-7.053,45.527-14.063,68.297-21.075c4.934-1.519,9.897-2.947,14.801-4.554c1.646-0.539,3.093-0.469,4.718,0.035
			c27.213,8.425,54.419,16.874,81.693,25.099c3.232,0.974,4.587,2.29,4.066,5.584C220.46,199.64,220.615,200.863,220.615,202.336z"
			/>
		<path style="fill-rule:evenodd;clip-rule:evenodd;" d="M132.094,320.029c-31.626,0-63.252-0.074-94.877,0.102
			c-3.567,0.019-2.999-1.789-3.022-3.887c-0.022-2.081-0.328-3.641,2.965-3.635c63.353,0.128,126.707,0.116,190.06,0.022
			c2.73-0.004,3.124,0.882,3.017,3.25c-0.189,4.141-0.051,4.147-4.18,4.147C194.735,320.029,163.414,320.029,132.094,320.029z"/>
		<path style="fill-rule:evenodd;clip-rule:evenodd;" d="M132.404,307.309c-28.374,0.001-56.747-0.034-85.12,0.061
			c-2.446,0.009-3.05-0.669-2.952-3.014c0.183-4.364,0.045-4.37,4.329-4.371c56.239,0,112.477-0.006,168.716,0.039
			c1.054,0.001,2.816-0.825,3.098,0.834c0.332,1.954,0.263,4.081-0.167,6.014c-0.21,0.945-1.821,0.416-2.783,0.417
			C189.151,307.314,160.777,307.309,132.404,307.309z"/>
		<path style="fill-rule:evenodd;clip-rule:evenodd;" d="M132.399,207.084c28.383-0.001,56.767,0.037,85.15-0.064
			c2.576-0.01,3.422,0.657,3.114,3.186c-0.253,2.058,0.755,4.21-3.102,4.201c-56.665-0.139-113.331-0.112-169.996-0.042
			c-2.434,0.003-3.391-0.422-3.244-3.088c0.231-4.181,0.048-4.192,4.148-4.192C76.446,207.085,104.423,207.085,132.399,207.084z"/>
		<path style="fill-rule:evenodd;clip-rule:evenodd;" d="M204.023,201.906c-13.039,1.711-25.41-0.473-37.647-4.794
			c-10.404-3.673-21.108-6.487-31.65-9.779c-1.657-0.518-3.096-0.456-4.722,0.034c-15.427,4.652-30.883,9.212-46.307,13.874
			c-2.363,0.715-4.695,1.119-7.166,1.083c-5.584-0.079-11.171-0.025-16.851-0.49c7.291-2.247,14.576-4.515,21.874-6.74
			c16.285-4.965,32.579-9.9,48.86-14.882c1.302-0.399,2.456-0.504,3.816-0.081c22.644,7.045,45.308,14.028,67.964,21.034
			C202.822,201.359,203.417,201.658,204.023,201.906z"/>
		<path style="fill-rule:evenodd;clip-rule:evenodd;" d="M66.977,255.773c0,11.184,0.003,22.369-0.002,33.552
			c-0.001,4.654-1.786,6.72-5.842,6.794c-4.265,0.079-6.363-2.082-6.365-6.641c-0.01-22.674,0.023-45.346-0.048-68.02
			c-0.006-2.08,0.458-2.876,2.663-2.738c1.579,0.099,2.119,0.517,2.082,2.114c-0.09,3.759-0.013,7.523-0.013,11.284
			c0.002,18.708,0.001,37.416,0.001,56.124c0,0.407-0.02,0.814,0.002,1.22c0.05,0.968-0.296,2.298,1.173,2.375
			c1.569,0.083,1.573-1.195,1.571-2.37c-0.012-7.625-0.006-15.251-0.006-22.876c0-14.946,0.002-29.892-0.002-44.838
			c-0.001-1.589-0.424-3.082,2.286-3.081c2.766,0.001,2.518,1.456,2.515,3.243C66.964,233.201,66.977,244.487,66.977,255.773z"/>
		<path style="fill-rule:evenodd;clip-rule:evenodd;" d="M92.007,255.607c0-11.391,0.024-22.783-0.025-34.174
			c-0.007-1.737,0.062-2.966,2.37-2.696c1.217,0.143,1.603,0.564,1.524,1.677c-0.036,0.506-0.004,1.017-0.004,1.525
			c0,23.704,0.014,47.408-0.048,71.111c-0.003,1.112,1.04,2.9-1.55,3.131c-2.552,0.228-2.516-1.355-2.675-2.98
			c-1.123-11.503-2.236-23.008-3.397-34.979c-0.935,1.587-0.665,2.908-0.668,4.15c-0.023,10.377-0.026,20.753,0,31.13
			c0.004,1.529,0.092,2.706-2.133,2.691c-2.198-0.014-1.84-1.296-1.84-2.58c-0.001-24.11-0.002-48.221,0-72.331
			c0-1.271-0.387-2.577,1.83-2.574c2.056,0.002,2.26,1.023,2.43,2.591c1.23,11.405,2.513,22.804,3.779,34.206
			C91.736,255.54,91.871,255.573,92.007,255.607z"/>
		<path style="fill-rule:evenodd;clip-rule:evenodd;" d="M147.146,278.981c1.231-8.231-1.958-17.121-4.757-26.002
			c-3.008-9.545-2.334-19.287-2.277-29.006c0.02-3.375,2.837-5.338,6.608-5.188c3.278,0.13,5.243,2.032,5.294,5.406
			c0.082,5.286-0.078,10.576,0.071,15.858c0.062,2.203-1.234,1.805-2.52,1.847c-1.402,0.045-2.524,0.135-2.457-1.95
			c0.151-4.672,0.081-9.352,0.021-14.028c-0.013-1.084,0.549-2.89-1.226-2.849c-1.542,0.036-0.887,1.744-0.978,2.747
			c-1.167,12.98,1.536,25.381,5.451,37.651c2.905,9.105,1.484,18.556,1.531,27.863c0.017,3.119-2.758,4.917-6.267,4.789
			c-3.383-0.124-5.528-1.907-5.6-5.18c-0.133-6.095,0.032-12.196-0.021-18.293c-0.019-2.122,1.445-1.478,2.519-1.541
			c1.196-0.071,2.438-0.31,2.401,1.687c-0.093,4.98-0.021,9.962-0.014,14.944c0.001,0.813-0.036,1.63,0.036,2.438
			c0.064,0.713,0.244,1.589,1.123,1.551c0.82-0.036,1.059-0.83,1.06-1.601C147.148,286.869,147.146,283.616,147.146,278.981z"/>
		<path style="fill-rule:evenodd;clip-rule:evenodd;" d="M168.934,257.274c0-10.681-0.034-21.362,0.017-32.042
			c0.021-4.155,2.026-6.315,5.706-6.443c3.705-0.13,6.342,2.08,6.446,5.781c0.147,5.184-0.049,10.377,0.078,15.562
			c0.056,2.305-1.441,1.669-2.637,1.749c-1.279,0.085-2.301,0.16-2.236-1.8c0.161-4.878,0.051-9.763,0.053-14.647
			c0.001-1.148,0.047-2.48-1.501-2.492c-1.541-0.01-1.548,1.325-1.549,2.47c-0.003,21.26-0.001,42.52-0.008,63.781
			c0,1.304,0.168,2.699,1.76,2.609c1.495-0.086,1.294-1.55,1.296-2.656c0.005-5.188,0.086-10.377-0.041-15.563
			c-0.048-1.931,0.418-2.552,2.466-2.581c2.236-0.032,2.417,0.943,2.389,2.721c-0.083,5.288,0.005,10.579-0.04,15.868
			c-0.038,4.311-2.259,6.571-6.282,6.527c-3.911-0.041-5.885-2.135-5.902-6.495C168.907,278.84,168.934,268.057,168.934,257.274z"/>
		<path style="fill-rule:evenodd;clip-rule:evenodd;" d="M112.966,257.236c-0.001-11.696,0.113-23.395-0.08-35.089
			c-0.048-2.934,0.895-3.723,3.57-3.394c1.402,0.173,2.847,0.088,4.267,0.015c1.566-0.08,2.645-0.055,2.606,2.144
			c-0.038,2.059-1.067,2.124-2.478,1.93c-1.943-0.268-2.571,0.389-2.541,2.439c0.124,8.338,0.117,16.68,0.004,25.019
			c-0.028,2.014,0.55,2.797,2.537,2.475c1.713-0.277,2.469,0.169,2.486,2.206c0.018,2.112-0.88,2.418-2.518,2.157
			c-1.993-0.317-2.526,0.464-2.505,2.459c0.106,9.865,0.131,19.732-0.013,29.596c-0.033,2.298,0.551,3.113,2.831,2.784
			c1.09-0.158,2.356-0.276,3.313,0.13c1.114,0.472,0.405,1.813,0.504,2.766c0.121,1.165-0.722,1.252-1.601,1.249
			c-2.644-0.009-5.298-0.139-7.93,0.041c-2.111,0.146-2.503-0.699-2.491-2.617C113.005,281.443,112.966,269.34,112.966,257.236z"/>
		<path d="M210.44,224.863c-0.01-3.992-2.02-5.992-5.955-6.075c-4.5-0.096-6.75,2.21-6.753,7.027
			c-0.013,21.134-0.012,42.269-0.001,63.404c0.001,4.567,2.11,6.877,6.213,6.9c4.296,0.024,6.494-2.302,6.499-6.937
			c0.012-10.568,0.004-21.134,0.005-31.703C210.449,246.607,210.467,235.735,210.44,224.863z M204.195,291.855
			c-1.906-0.021-1.676-1.667-1.676-2.974c-0.006-21.038-0.009-42.074,0.004-63.112c0.001-1.07-0.302-2.512,1.186-2.774
			c2.256-0.395,2.048,1.355,2.05,2.779c0.006,10.57,0.003,21.139,0.003,31.709c0.001,10.468,0.012,20.936-0.014,31.403
			C205.745,290.106,206.26,291.878,204.195,291.855z"/>
	</g>
	<g>
		<path style="fill-rule:evenodd;clip-rule:evenodd;fill:#5C0939;" d="M372.345,231.504c-0.006-0.711,0.067-1.434-0.035-2.132
			c-0.255-1.744,0.456-2.214,2.167-2.187c6.097,0.096,12.194,0.027,18.291,0.034c13.515,0.015,27.031,0.036,40.546,0.056
			c1.887,3.96,0.863,5.74-3.552,5.785c-10.367,0.105-20.734,0.026-31.101,0.039c-1.017,0-2.039,0.067-3.048-0.005
			c-2.496-0.18-3.418,0.948-3.392,3.411c0.07,7.114,0.03,14.23,0.022,21.345c-0.001,1.118,0.037,2.238-0.054,3.354
			c-0.285,3.574-1.689,4.465-4.996,3.178c-0.464-0.181-1-0.217-1.366-0.619c-0.032-9.93-0.065-19.86-0.098-29.789
			c-1.082-1.585-2.754-1.536-4.381-1.549C378.317,232.402,375.267,232.594,372.345,231.504z"/>
		<path style="fill-rule:evenodd;clip-rule:evenodd;fill:#5B0838;" d="M424.867,259.616c2.72-0.645,3.693-2.592,3.717-5.146
			c0.041-4.455-0.014-8.91,0.043-13.364c0.01-0.783-0.537-2.231,0.811-2.156c1.345,0.074,3.283-1.366,4.061,1.051
			c0.783,0.817,0.719,1.864,0.727,2.865c0.033,3.75,0.141,7.503-0.024,11.248c-0.41,9.372-8.629,14.014-16.751,9.412
			c-1.624-0.92-2.671-0.624-4.104,0.275c-4.376,2.746-9.508,1.949-12.918-1.819c-1.792-2.419-2.502-5.197-2.545-8.143
			c-0.06-4.035,0.125-8.079-0.078-12.105c-0.117-2.369,0.582-3.333,2.961-2.923c0.49,0.085,1.006,0.018,1.512,0.021
			c2.461,4.586,1.195,9.557,1.424,14.364c0.104,2.226,0.393,4.2,2.277,5.694c1.126,0.894,2.214,1.394,3.597,0.717
			c2.684-0.73,3.616-2.766,3.687-5.257c0.106-3.651,0.059-7.304,0.065-10.956c0.006-4.688,0.002-4.688,4.647-4.49
			c1.155,1.121,0.998,2.588,1.019,3.991c0.052,3.753-0.138,7.511,0.086,11.258C419.286,257.578,421.775,259.822,424.867,259.616z"/>
		<path style="fill-rule:evenodd;clip-rule:evenodd;fill:#5C0839;" d="M451.105,264.399c-1.063-0.172-1.832-0.452-1.8-1.867
			c0.104-4.446-0.228-8.92,0.136-13.338c0.802-9.681,8.532-13.579,17.492-9.033c4.268,2.019,4.752,6.054,5.121,10.007
			c0.301,3.226,0.098,6.489,0.073,9.737c-0.041,5.14-0.91,5.725-5.761,3.98c-0.006-4.534-0.008-9.069-0.024-13.602
			c-0.005-1.198,0.174-2.437-0.629-3.495c-0.548-0.593-1.131-1.128-1.833-1.559c-4.403-2.696-8.466-0.719-8.787,4.413
			c-0.26,4.128,0.076,8.277-0.146,12.409C454.79,264.962,453.832,265.478,451.105,264.399z"/>
		<path style="fill-rule:evenodd;clip-rule:evenodd;fill:#5B0838;" d="M310.632,262.188c-3.06-2.885-3.313-6.74-3.5-10.549
			c-0.152-3.125-0.033-6.264-0.03-9.397c0.005-3.829,0.859-4.32,4.888-2.822c0.871,1.132,0.772,2.469,0.783,3.776
			c0.021,2.522,0.144,5.055-0.025,7.567c-0.25,3.736,1.027,6.7,3.933,9.005c4.132,0.745,7.3-1.74,7.399-5.953
			c0.093-3.939,0.228-7.896-0.048-11.818c-0.193-2.743,0.708-3.643,3.296-3.182c0.494,0.088,1.006,0.067,1.51,0.096
			c0.426,0.326,0.735,0.791,0.759,1.28c0.276,5.874,1.168,11.836-0.743,17.549C326.191,265.699,316.271,268.02,310.632,262.188z"/>
		<path style="fill-rule:evenodd;clip-rule:evenodd;fill:#5C0939;" d="M351.045,263.764c0.005-3.617-0.054-7.237,0.038-10.852
			c0.06-2.3-0.133-4.536-0.857-6.72c-6.455-4.554-11.025-1.282-10.6,5.896c0.192,3.225,0.13,6.477-0.027,9.712
			c-0.074,1.517-0.189,3.359-2.404,3.029c-1.634-0.243-3.235-0.667-3.071-3.175c0.311-4.736-0.135-9.501,0.217-14.248
			c1.596-6.784,4.79-9.05,12.918-9.163c2.671-0.01,4.772,1.15,6.473,3.146c2.087,2.431,2.866,5.344,2.993,8.445
			c0.141,3.447,0.09,6.9,0.032,10.349C356.681,264.658,355.45,265.406,351.045,263.764z"/>
		<path style="fill-rule:evenodd;clip-rule:evenodd;fill:#CDE4D1;" d="M385.827,263.762c0.692,0.121,1.39,0.22,2.077,0.369
			c2.614,0.565,3.226-0.573,3.185-3.076c-0.141-8.822,0.011-17.65-0.097-26.473c-0.025-2.135,0.62-2.759,2.743-2.743
			c11.766,0.086,23.532,0.036,35.298,0.031c4.457-0.002,4.457-0.004,4.281-4.595c2.917,0.373,2.608,2.516,2.535,4.566
			c-0.082,2.307-1.762,1.976-3.277,2.145c-11.144,1.238-22.32,0.258-33.477,0.542c-4.508,0.113-4.772,0.292-4.775,4.923
			c-0.003,7.116,0.029,14.232-0.018,21.347c-0.016,2.325,0.729,4.969-2.632,5.987C388.6,267.717,387.342,265.599,385.827,263.762z"
			/>
		<path style="fill-rule:evenodd;clip-rule:evenodd;fill:#CAE1CE;" d="M400.429,261.981c2.963,1.849,6.04,3.105,9.675,2.446
			c2.296-0.418,3.844-3.197,5.617-2.918c1.756,0.276,3.35,2.424,5.489,2.883c6.585,1.41,11.803-2.866,12.147-10.098
			c0.179-3.745,0.033-7.506,0.049-11.259c0.003-1.012,0.062-2.023,0.094-3.034c1.616-0.6,2.337,0.142,2.34,1.684
			c0.016,6.599,0.059,13.199-0.06,19.797c-0.043,2.417-4.755,5.923-7.913,6.027c-2.806,0.093-5.661,0.41-8.122-1.588
			c-1.657-1.346-3.278-0.218-4.812,0.474c-4.758,2.147-10.118,1.287-13.771-2.202C400.48,263.54,400.415,262.802,400.429,261.981z"
			/>
		<path style="fill-rule:evenodd;clip-rule:evenodd;fill:#5D0A3A;" d="M438.955,263.768c0.003-7.57-0.009-15.141,0.035-22.712
			c0.005-0.781-0.502-2.223,0.86-2.122c1.337,0.099,3.281-1.346,4.02,1.09c0.963,1.218,0.862,2.671,0.868,4.086
			c0.022,5.383,0.044,10.768-0.003,16.151C444.688,265.375,443.628,265.997,438.955,263.768z"/>
		<path style="fill-rule:evenodd;clip-rule:evenodd;fill:#CDE1D1;" d="M366.191,238.86c3.578,1.434,3.858,4.347,3.736,7.685
			c-0.182,4.961-0.166,9.939,0,14.9c0.092,2.707-0.49,5.01-3.129,5.91c-2.689,0.916-3.817-1.542-5.194-3.2
			c-0.182-0.219-0.222-0.556-0.326-0.838c-1.447-3.911-1.444-7.823-0.002-11.735c0.017-3.315,0.003-6.632,0.071-9.946
			c0.021-0.941-0.421-2.046,0.651-2.759c1.041,1.192,0.878,2.66,0.887,4.066c0.035,5.489-0.041,10.978,0.052,16.466
			c0.021,1.18-0.467,3.197,1.39,3.09c1.429-0.082,0.919-1.987,0.932-3.106c0.065-5.488,0.011-10.977,0.041-16.466
			C365.307,241.519,365.159,240.053,366.191,238.86z"/>
		<path style="fill-rule:evenodd;clip-rule:evenodd;fill:#C9E1CD;" d="M310.632,262.188c2.451,1.48,4.988,2.541,7.968,2.373
			c5.141-0.291,8.816-3.242,9.789-8.341c1.095-5.73,0.35-11.537,0.448-17.309c1.927,0.77,2.698,2.167,2.652,4.257
			c-0.095,4.333,0.057,8.671-0.055,13.002c-0.223,8.531-6.414,13.011-14.891,10.979
			C313.682,266.463,311.614,265.021,310.632,262.188z"/>
		<path style="fill-rule:evenodd;clip-rule:evenodd;fill:#CBE2CF;" d="M334.342,247.405c-0.019,4.865,0.063,9.735-0.101,14.596
			c-0.076,2.237,1.264,2.024,2.701,2.194c1.92,0.227,1.841-0.926,1.841-2.232c-0.003-4.361-0.076-8.727,0.124-13.081
			c0.131-2.856,1.567-5.098,4.538-5.752c2.92-0.643,5.43,0.032,6.781,3.063c-1.933,0.514-4.089-1.452-5.94,0.765
			c-1.252,1.498-1.867,2.994-1.923,4.939c-0.111,3.838,0.388,7.677-0.407,11.529c-0.475,2.302-1.9,3.196-3.76,3.223
			c-2.045,0.03-4.108-2.017-4.161-3.255C333.814,258.083,333.047,252.701,334.342,247.405z"/>
		<path style="fill-rule:evenodd;clip-rule:evenodd;fill:#5A0737;" d="M366.191,238.86c0.055,7.704,0.095,15.409,0.174,23.112
			c0.014,1.349-0.011,2.416-1.881,2.23c-1.466-0.146-2.67,0.006-2.621-2.212c0.166-7.702,0.108-15.41,0.136-23.115
			C363.396,238.871,364.793,238.865,366.191,238.86z"/>
		<path style="fill-rule:evenodd;clip-rule:evenodd;fill:#D0E5D4;" d="M451.105,264.399c2.318,0.092,3.318-0.707,3.133-3.323
			c-0.284-4.046-0.162-8.131-0.037-12.193c0.097-3.115,2.058-5.319,4.831-5.833c3.15-0.585,5.249,0.589,6.682,3.738
			c-5.565-1.665-8.464,0.528-8.51,6.457c-0.025,3.347,0.108,6.702-0.081,10.04c-0.101,1.768-0.914,3.449-3.048,3.581
			C452.447,266.966,450.964,266.578,451.105,264.399z"/>
		<path style="fill-rule:evenodd;clip-rule:evenodd;fill:#CAE3CF;" d="M466.367,263.885c0.898,0.086,1.803,0.133,2.695,0.264
			c1.461,0.216,1.982-0.387,1.963-1.841c-0.062-4.542,0.044-9.087-0.068-13.627c-0.084-3.382-1.71-6.138-4.023-8.52
			c2.733-0.095,4.398,1.87,5.462,3.75c1.507,2.663,2.87,5.523,2.56,8.899c-0.284,3.122-0.074,6.291-0.048,9.439
			c0.014,1.56,0.132,3.385-1.695,3.804c-1.863,0.428-4.013,1.063-5.615-0.902C467.227,264.696,466.779,264.306,466.367,263.885z"/>
		<path style="fill-rule:evenodd;clip-rule:evenodd;fill:#C7E0CC;" d="M438.955,263.768c0.696,0.124,1.394,0.233,2.085,0.375
			c2.058,0.422,2.83-0.226,2.793-2.488c-0.116-7.208,0.006-14.419,0.036-21.63c2.233,0.024,2.955,1.325,2.947,3.358
			c-0.025,6.684-0.051,13.37,0.011,20.053c0.014,1.731-0.521,2.987-2.156,3.598c-1.611,0.601-2.947-0.048-4.055-1.202
			C440.009,265.197,439.505,264.459,438.955,263.768z"/>
		<path style="fill-rule:evenodd;clip-rule:evenodd;fill:#E9F0E9;" d="M361.276,251.583c0,3.911,0.002,7.822,0.003,11.734
			c-1.296,0.757-1.66,2.238-2.567,3.291c-0.979,1.135-2.125,1.842-3.72,1.126c-1.404-0.63-3.238-0.807-2.86-3.074
			c0.734-1.053,1.442-0.128,2.104,0.079c2.126,0.662,3.148-0.208,3.191-2.287c0.092-4.554,0.333-9.134-0.086-13.658
			c-0.282-3.046-1.695-5.823-4.549-7.519c-1.58-1.494-3.554-2.268-5.533-3.033c5.758-0.883,10.752,3.034,11.708,9
			C359.227,248.863,359.894,250.462,361.276,251.583z"/>
		<path style="fill-rule:evenodd;clip-rule:evenodd;fill:#D0E5D5;" d="M424.867,259.616c-3.901,1.063-6.685-1.003-6.781-5.212
			c-0.119-5.165-0.079-10.334-0.108-15.501c3.186,1.291,3.521,4.1,3.628,6.967c0.119,3.226,0.12,6.456,0.177,9.684
			C421.821,257.656,422.409,259.347,424.867,259.616z"/>
		<path style="fill-rule:evenodd;clip-rule:evenodd;fill:#C3DEC8;" d="M352.793,241.275c3.261,1.111,5.435,4.11,5.487,7.8
			c0.063,4.471,0.027,8.945,0.018,13.418c-0.002,1.199,0.238,2.532-1.212,3.163c-1.423,0.619-2.724,0.551-3.839-0.718
			c-0.208-0.237-0.734-0.194-1.114-0.28c-0.494-0.138-1.054-0.197-1.087-0.895c4.723,0.822,4.725,0.822,4.726-3.846
			c0-2.921-0.089-5.846,0.018-8.763C355.922,247.493,354.981,244.207,352.793,241.275z"/>
		<path style="fill-rule:evenodd;clip-rule:evenodd;fill:#CEE4D3;" d="M409.578,259.606c-3.915,1.108-6.758-0.87-6.916-5.039
			c-0.154-4.038-0.027-8.086-0.073-12.129c-0.016-1.204-0.203-2.405-0.309-3.608c5.485,3.264,3.329,8.638,3.44,13.259
			c0.041,1.693,0.195,3.385,0.342,5.052C406.236,259.094,407.732,259.737,409.578,259.606z"/>
		<path style="fill-rule:evenodd;clip-rule:evenodd;fill:#CCE2D0;" d="M316.68,259.767c-3.348-0.681-4.63-3.116-4.723-6.143
			c-0.147-4.73,0.006-9.469,0.033-14.205c2.331,0.659,2.963,2.286,3.012,4.581c0.089,4.017-0.61,8.078,0.483,12.05
			C315.83,257.303,316.279,258.529,316.68,259.767z"/>
		<path style="fill-rule:evenodd;clip-rule:evenodd;fill:#D4E7D7;" d="M443.593,227.315c2.37-0.142,3.567,1.089,3.826,3.338
			c0.222,1.91-0.825,3.321-2.465,3.725c-1.981,0.486-4.154,0.458-4.847-2.255C442.417,231.353,443.741,229.868,443.593,227.315z"/>
		<path style="fill-rule:evenodd;clip-rule:evenodd;fill:#C6D3C8;" d="M372.345,231.504c3.803,0.087,7.605,0.233,11.408,0.232
			c1.665,0,2.549,0.399,1.976,2.237c-1.806-0.01-3.627-0.165-5.417,0.001C377.276,234.256,374.688,233.333,372.345,231.504z"/>
		<path style="fill-rule:evenodd;clip-rule:evenodd;fill:#D4E6D7;" d="M366.196,227.255c2.185-0.06,3.415,1.141,3.636,3.166
			c0.192,1.732-0.643,3.101-2.348,3.796c-2.369,0.965-3.811-0.176-4.887-2.149C364.958,231.331,366.379,229.894,366.196,227.255z"/>
		<path style="fill-rule:evenodd;clip-rule:evenodd;fill:#5D0B3A;" d="M366.196,227.255c1.417,3.799,0.456,5.082-3.598,4.813
			c-1.223-1.279-1.9-2.723-0.73-4.328C363.068,226.092,364.64,226.425,366.196,227.255z"/>
		<path style="fill-rule:evenodd;clip-rule:evenodd;fill:#5E0E3B;" d="M443.593,227.315c1.375,3.644,0.444,4.928-3.486,4.807
			c-1.342-1.294-2.18-2.761-0.829-4.466C440.513,226.101,442.072,226.403,443.593,227.315z"/>
		<path style="fill:#C3D150;" d="M470.458,273.737c-2.025-0.896-4.408,0.154-5.257,2.267c-4.017,10.012-9.667,18.985-17.125,26.801
			c-0.719,0.753-1.255,1.718-2.223,0.191c-2.627-4.142-6.3-7.174-10.619-9.374c-1.9-0.968-1.515-1.801-0.528-3.2
			c3.281-4.659,6.049-9.635,8.596-14.729c0.299-0.599,1.22-1.367,0.086-2.019c-1.437-0.825-4.918,0.293-5.699,1.802
			c-2.294,4.429-4.896,8.664-7.7,12.791c-1.087,1.601-2.034,2.011-3.99,1.367c-9.231-3.041-18.809-4.057-28.474-4.404
			c-1.526,0-3.063-0.115-4.574,0.029c-1.976,0.186-2.431-0.678-2.296-2.479c0.16-2.124-0.033-4.274,0.103-6.401
			c0.12-1.863-0.298-2.759-2.448-2.743c-1.99,0.013-2.701,0.57-2.583,2.591c0.143,2.431-0.092,4.882-0.006,7.319
			c0.055,1.562-0.496,2.077-2.058,2.214c-3.836,0.337-7.694,0.693-11.462,1.447c-2.172,0.435-2.616-0.4-2.938-2.153
			c-0.581-3.188-1.377-6.338-1.954-9.527c-0.525-2.901-2.733-1.905-4.311-1.803c-1.803,0.116-0.96,1.658-0.81,2.607
			c0.333,2.102,0.802,4.184,1.249,6.267c0.425,1.979,1.686,4.217,1.135,5.853c-0.645,1.908-3.594,1.738-5.414,2.743
			c-0.176,0.097-0.374,0.158-0.566,0.227c-1.184,0.431-1.329,1.03-0.894,2.304c0.965,2.817,2.553,2.913,4.834,1.666
			c2.212-1.211,3.765-1.618,4.717,1.817c2.066,7.448,4.98,14.7,9.279,21.122c7.178,10.725,4.313,10.302,16.756,5.809
			c14.171-5.115,25.667-14.242,35.365-25.691c0.645-0.763,1.049-2.05,2.63-1.219c3.918,2.061,7.422,4.557,10.084,8.177
			c1.352,1.837,1.19,3.102-0.655,4.529c-5.813,4.501-11.913,8.494-18.717,11.344c-9.28,3.887-18.958,5.989-29.011,6.091
			c-2.711,0.027-2.115,1.641-2.283,3.2c-0.209,1.948,0.723,2.024,2.305,1.981c8.063-0.222,15.952-1.442,23.653-3.843
			c20.939-6.531,36.121-20.133,47.214-38.661c2.711-4.527,5.127-9.244,6.77-14.295C470.836,275.136,471.75,274.31,470.458,273.737z
			 M382.69,318.482c-5.184-8.12-8.493-16.207-11.17-24.592c-0.395-1.232,0.352-1.441,1.166-1.566
			c3.592-0.555,7.19-1.074,10.79-1.571c1.033-0.142,1.781,0.134,1.74,1.435C384.938,300.756,384.121,309.263,382.69,318.482z
			 M387.73,320.718c0.661-6.035,1.337-11.737,1.889-17.451c0.352-3.633,0.533-7.283,0.764-10.926
			c0.089-1.398,0.507-2.216,2.18-2.175c10.766,0.269,21.471,0.917,32.394,4.488C414.645,306.733,402.622,315.481,387.73,320.718z"/>
		<path style="fill:#C3D150;" d="M390.704,208.141c-0.048-1.154,0.629-2.545-1.759-2.597c-4.853-0.107-9.722-0.402-14.52-1.331
			c-7.116-1.376-7.056-1.344-5.395-8.364c2.413-10.189,6.452-19.623,13.313-28.573c-2.824,0.428-4.829,0.664-6.808,1.043
			c-22.868,4.376-41.229,16.016-55.226,34.541c-5.04,6.67-9.226,13.874-12.314,21.672c-0.249,0.628-1.144,1.419-0.001,2.044
			c1.618,0.885,4.772-0.26,5.539-1.993c2.722-6.16,6.122-11.928,10.088-17.359c2.343-3.208,4.785-6.346,8.377-9.69
			c-3.738,9.116-6.217,17.649-7.368,26.533c-0.136,1.039-1.158,2.708,1.131,2.499c1.412-0.128,3.51,1.225,3.895-1.824
			c0.841-6.656,2.586-13.133,4.936-19.408c1.795-4.795,3.681-9.589,6.84-14.158c3.033,6.091,7.71,10.255,13.444,12.383
			c5.492,2.04,8.131,4.648,6.511,10.593c-0.407,1.493-0.071,2.707,2.099,2.684c1.976-0.021,3.094-0.338,2.887-2.637
			c-0.098-1.087,0.406-2.221,0.347-3.319c-0.136-2.522,0.921-2.788,3.144-2.276c6.249,1.438,12.645,1.76,19.031,2.132
			C391.133,210.866,390.755,209.393,390.704,208.141z M363.014,199.307c-0.173,0.983-0.453,2.105-1.965,1.506
			c-5.94-2.355-11.365-5.347-14.658-11.199c-1.25-2.221-1.209-3.697,1.264-5.17c7.242-4.314,14.808-7.742,23.708-9.901
			C367.151,182.848,364.491,190.881,363.014,199.307z"/>
	</g>
</g>
</svg>
